<mxfile host="app.diagrams.net" agent="Mozilla/5.0 (Windows NT 10.0; Win64; x64) AppleWebKit/537.36 (KHTML, like Gecko) Chrome/134.0.0.0 Safari/537.36 Edg/134.0.0.0" version="26.1.0">
  <diagram name="Page-1" id="cRXtdg7SqLjiKeP-FUML">
    <mxGraphModel dx="569" dy="325" grid="1" gridSize="10" guides="1" tooltips="1" connect="1" arrows="1" fold="1" page="1" pageScale="1" pageWidth="827" pageHeight="1169" math="0" shadow="0">
      <root>
        <mxCell id="0" />
        <mxCell id="1" parent="0" />
        <mxCell id="L8-RwvknkBQppo5TfQSy-2" value="&lt;b&gt;&lt;font style=&quot;font-size: 14px;&quot;&gt;High Level Architecture&lt;/font&gt;&lt;/b&gt;&lt;div&gt;&lt;br&gt;&lt;/div&gt;" style="text;html=1;align=center;verticalAlign=middle;resizable=3;points=[];autosize=1;strokeColor=none;fillColor=none;" vertex="1" parent="1">
          <mxGeometry x="35" y="30" width="180" height="40" as="geometry" />
        </mxCell>
        <mxCell id="L8-RwvknkBQppo5TfQSy-4" value="" style="rounded=0;whiteSpace=wrap;html=1;fillColor=none;" vertex="1" parent="1">
          <mxGeometry x="50" y="140" width="120" height="270" as="geometry" />
        </mxCell>
        <mxCell id="L8-RwvknkBQppo5TfQSy-5" value="&lt;font style=&quot;font-size: 14px;&quot;&gt;Sources&lt;/font&gt;" style="rounded=0;whiteSpace=wrap;html=1;fillColor=default;strokeColor=none;" vertex="1" parent="1">
          <mxGeometry x="65" y="130" width="90" height="30" as="geometry" />
        </mxCell>
        <mxCell id="L8-RwvknkBQppo5TfQSy-6" value="" style="rounded=0;whiteSpace=wrap;html=1;fillColor=none;" vertex="1" parent="1">
          <mxGeometry x="215" y="160" width="405" height="250" as="geometry" />
        </mxCell>
        <mxCell id="L8-RwvknkBQppo5TfQSy-7" value="&lt;span style=&quot;font-size: 14px;&quot;&gt;Data Warehouse&lt;/span&gt;" style="rounded=0;whiteSpace=wrap;html=1;fillColor=default;strokeColor=none;" vertex="1" parent="1">
          <mxGeometry x="365" y="140" width="130" height="30" as="geometry" />
        </mxCell>
        <mxCell id="L8-RwvknkBQppo5TfQSy-8" value="" style="rounded=0;whiteSpace=wrap;html=1;fillColor=none;" vertex="1" parent="1">
          <mxGeometry x="660" y="140" width="120" height="270" as="geometry" />
        </mxCell>
        <mxCell id="L8-RwvknkBQppo5TfQSy-9" value="&lt;span style=&quot;font-size: 14px;&quot;&gt;Consume&lt;/span&gt;" style="rounded=0;whiteSpace=wrap;html=1;fillColor=default;strokeColor=none;" vertex="1" parent="1">
          <mxGeometry x="675" y="130" width="90" height="30" as="geometry" />
        </mxCell>
        <mxCell id="L8-RwvknkBQppo5TfQSy-10" value="Raw Data" style="rounded=0;whiteSpace=wrap;html=1;strokeColor=default;fillColor=none;" vertex="1" parent="1">
          <mxGeometry x="250" y="190" width="100" height="200" as="geometry" />
        </mxCell>
        <mxCell id="L8-RwvknkBQppo5TfQSy-13" value="Clean and Standardize data" style="rounded=0;whiteSpace=wrap;html=1;strokeColor=default;fillColor=none;" vertex="1" parent="1">
          <mxGeometry x="380" y="190" width="100" height="200" as="geometry" />
        </mxCell>
        <mxCell id="L8-RwvknkBQppo5TfQSy-14" value="Business Ready Data" style="rounded=0;whiteSpace=wrap;html=1;strokeColor=default;fillColor=none;" vertex="1" parent="1">
          <mxGeometry x="500" y="190" width="100" height="200" as="geometry" />
        </mxCell>
        <mxCell id="L8-RwvknkBQppo5TfQSy-16" value="&lt;b&gt;CRM&lt;/b&gt;" style="image;aspect=fixed;html=1;points=[];align=center;fontSize=12;image=img/lib/azure2/general/Folder_Blank.svg;" vertex="1" parent="1">
          <mxGeometry x="91.52" y="200" width="36.96" height="30" as="geometry" />
        </mxCell>
        <mxCell id="L8-RwvknkBQppo5TfQSy-18" value="&lt;b&gt;ERP&lt;/b&gt;" style="image;aspect=fixed;html=1;points=[];align=center;fontSize=12;image=img/lib/azure2/general/Folder_Blank.svg;" vertex="1" parent="1">
          <mxGeometry x="91.52" y="280" width="36.96" height="30" as="geometry" />
        </mxCell>
        <mxCell id="L8-RwvknkBQppo5TfQSy-23" value="" style="endArrow=none;html=1;rounded=0;" edge="1" parent="1">
          <mxGeometry width="50" height="50" relative="1" as="geometry">
            <mxPoint x="75" y="340" as="sourcePoint" />
            <mxPoint x="155" y="340" as="targetPoint" />
          </mxGeometry>
        </mxCell>
        <mxCell id="L8-RwvknkBQppo5TfQSy-24" value="&lt;font style=&quot;font-size: 8px;&quot;&gt;&lt;b style=&quot;&quot;&gt;Object Type :&lt;/b&gt; CSV Files&lt;/font&gt;&lt;div&gt;&lt;font style=&quot;font-size: 8px;&quot;&gt;&lt;b style=&quot;&quot;&gt;Interface :&lt;/b&gt; Files in Folder&lt;/font&gt;&lt;/div&gt;" style="text;html=1;align=center;verticalAlign=middle;whiteSpace=wrap;rounded=0;" vertex="1" parent="1">
          <mxGeometry x="50" y="360" width="120" height="30" as="geometry" />
        </mxCell>
        <mxCell id="L8-RwvknkBQppo5TfQSy-27" value="&lt;font style=&quot;font-size: 12px;&quot;&gt;Bronze&lt;/font&gt;" style="rounded=0;whiteSpace=wrap;html=1;fillColor=default;strokeColor=none;" vertex="1" parent="1">
          <mxGeometry x="270" y="180" width="55" height="20" as="geometry" />
        </mxCell>
        <mxCell id="L8-RwvknkBQppo5TfQSy-28" value="Silver" style="rounded=0;whiteSpace=wrap;html=1;fillColor=default;strokeColor=none;" vertex="1" parent="1">
          <mxGeometry x="402.5" y="180" width="55" height="20" as="geometry" />
        </mxCell>
        <mxCell id="L8-RwvknkBQppo5TfQSy-29" value="Gold" style="rounded=0;whiteSpace=wrap;html=1;fillColor=default;strokeColor=none;" vertex="1" parent="1">
          <mxGeometry x="522.5" y="180" width="55" height="20" as="geometry" />
        </mxCell>
        <mxCell id="L8-RwvknkBQppo5TfQSy-33" value="BI and Reporting" style="image;aspect=fixed;html=1;points=[];align=center;fontSize=12;image=img/lib/azure2/analytics/Power_BI_Embedded.svg;" vertex="1" parent="1">
          <mxGeometry x="706" y="190" width="30" height="40" as="geometry" />
        </mxCell>
        <mxCell id="L8-RwvknkBQppo5TfQSy-34" value="Ad-Hoc&amp;nbsp;&lt;div&gt;SQL Reporting&lt;/div&gt;" style="html=1;verticalLabelPosition=bottom;align=center;labelBackgroundColor=#ffffff;verticalAlign=top;strokeWidth=2;strokeColor=#0080F0;shadow=0;dashed=0;shape=mxgraph.ios7.icons.looking_glass;" vertex="1" parent="1">
          <mxGeometry x="706" y="290" width="24" height="20" as="geometry" />
        </mxCell>
      </root>
    </mxGraphModel>
  </diagram>
</mxfile>
